<svg width="161" height="28" viewBox="0 0 161 28" fill="none" xmlns="http://www.w3.org/2000/svg">
<path d="M106.399 26.962C107.536 27.5798 108.883 27.8888 110.44 27.8888C111.972 27.8888 113.467 27.4933 114.926 26.7025C116.408 25.9116 117.693 24.7501 118.781 23.2178C119.868 21.6856 120.573 19.8073 120.894 17.5831L120.412 17.3606C119.127 19.1648 117.817 20.5117 116.483 21.4014C115.173 22.2911 113.974 22.7359 112.887 22.7359C111.478 22.7359 110.329 22.0316 109.439 20.6229C108.549 19.2142 108.154 17.1382 108.253 14.395C108.302 13.3076 108.475 12.2325 108.772 11.1698C109.068 10.1071 109.464 9.14328 109.958 8.2783C110.477 7.3886 111.058 6.68426 111.7 6.16526C112.343 5.64627 113.023 5.38678 113.739 5.38678C114.332 5.38678 114.827 5.54742 115.222 5.8687C115.618 6.16527 115.815 6.74604 115.815 7.61103C115.815 8.03116 115.753 8.5378 115.63 9.13093C115.506 9.72406 115.309 10.416 115.037 11.2069C116.643 11.2069 117.953 10.9598 118.966 10.4655C120.004 9.94649 120.77 9.29157 121.265 8.50072C121.784 7.68517 122.043 6.8449 122.043 5.97991C122.043 4.86779 121.747 3.92866 121.153 3.16253C120.56 2.37169 119.757 1.77855 118.744 1.38313C117.755 0.962997 116.643 0.75293 115.407 0.75293C113.949 0.75293 112.429 1.06185 110.848 1.6797C109.291 2.27283 107.833 3.1996 106.473 4.46001C105.114 5.72041 103.99 7.32682 103.1 9.27921C102.21 11.2316 101.716 13.5547 101.617 16.2485C101.568 17.7561 101.704 19.2142 102.025 20.6229C102.371 22.0069 102.902 23.2549 103.619 24.367C104.36 25.4544 105.287 26.3194 106.399 26.962Z" fill="#0077FF"/>
<path d="M5.89425 27.8517C4.53499 27.8517 3.39815 27.2833 2.48374 26.1464C1.56933 25.0096 1.11212 23.4526 1.11212 21.4755C1.11212 20.4622 1.22333 19.3254 1.44576 18.065C1.66818 16.7799 1.92768 15.4824 2.22424 14.1726C2.52081 12.8627 2.78031 11.6394 3.00273 10.5025C3.22516 9.34099 3.33637 8.37715 3.33637 7.61103C3.33637 7.06732 3.26223 6.64718 3.11394 6.35062C2.96566 6.02934 2.69381 5.8687 2.29839 5.8687C2.00182 5.8687 1.65583 6.00463 1.2604 6.27648C0.864981 6.54833 0.568415 7.07968 0.370704 7.87052L-3.8147e-06 7.72224C-3.8147e-06 5.59685 0.481917 3.9163 1.44576 2.68061C2.43431 1.44492 3.7565 0.82707 5.41233 0.82707C6.96931 0.82707 8.04436 1.3337 8.63749 2.34697C9.25534 3.36024 9.56426 4.63301 9.56426 6.16526C9.56426 7.3021 9.44069 8.51308 9.19355 9.7982C8.97113 11.0833 8.71163 12.3684 8.41507 13.6536C8.1185 14.914 7.84665 16.0879 7.59951 17.1753C7.37708 18.2627 7.26587 19.1648 7.26587 19.8815C7.26587 20.9442 7.53772 21.4755 8.08143 21.4755C8.40271 21.4755 8.8352 21.2531 9.37891 20.8082C9.92261 20.3387 10.491 19.7085 11.0842 18.9176C11.702 18.1021 12.2951 17.1876 12.8636 16.1744C13.432 15.1364 13.9139 14.049 14.3093 12.9121C14.2599 12.3684 14.2228 11.8495 14.1981 11.3552C14.1734 10.8362 14.161 10.379 14.161 9.98356C14.161 8.00645 14.3464 6.4124 14.7171 5.20143C15.1125 3.99045 15.6068 3.10075 16.1999 2.53233C16.7931 1.96391 17.3986 1.6797 18.0164 1.6797C18.8814 1.6797 19.6599 2.16162 20.3519 3.12546C21.0439 4.06459 21.3898 5.34971 21.3898 6.98082C21.3898 7.99409 21.2045 9.13093 20.8338 10.3913C20.4631 11.627 19.8452 12.9492 18.9802 14.3579C18.9061 16.4833 19.1409 18.2009 19.6846 19.5107C20.2283 20.8206 20.9079 21.4755 21.7235 21.4755C22.2425 21.4755 22.7985 21.216 23.3917 20.697C24.0095 20.1533 24.5779 19.4119 25.0969 18.4728C25.6159 17.5089 26.0361 16.3968 26.3573 15.1364C26.7033 13.876 26.8763 12.5291 26.8763 11.0957C26.8763 10.2554 26.8145 9.37807 26.691 8.46365C26.5921 7.54924 26.4562 6.6719 26.2832 5.83163C26.1349 4.99136 25.9743 4.29937 25.8013 3.75566C25.8013 3.33553 25.9743 2.91539 26.3203 2.49526C26.691 2.05041 27.1605 1.6797 27.729 1.38313C28.2974 1.06185 28.8781 0.901211 29.4713 0.901211C30.0644 0.901211 30.6328 1.11128 31.1765 1.53142C31.7202 1.95155 32.1651 2.69297 32.5111 3.75566C32.8571 4.79364 33.0301 6.27648 33.0301 8.20416C33.0301 10.2365 32.8331 12.1773 32.4393 14.0268C32.3395 14.4952 32.0134 14.8806 31.5756 15.0744L27.7303 16.777C27.6634 16.8066 27.6634 16.9014 27.7303 16.931L29.6978 17.8022C30.4642 18.1415 30.8255 19.0333 30.4555 19.7853C30.0665 20.5758 29.6396 21.3246 29.1747 22.0316C28.0132 23.8357 26.728 25.2567 25.3193 26.2947C23.9107 27.308 22.4773 27.8146 21.0191 27.8146C19.734 27.8146 18.6713 27.4192 17.831 26.6283C16.9908 25.8375 16.3359 24.7748 15.8663 23.4403C15.3967 22.1057 15.0631 20.6229 14.8654 18.9918C13.9757 21.1171 13.0118 22.8348 11.9739 24.1446C10.9359 25.4297 9.8979 26.3688 8.85992 26.962C7.82193 27.5551 6.83338 27.8517 5.89425 27.8517Z" fill="#0077FF"/>
<path d="M34.5841 23.6308C34.5751 23.6511 34.5671 23.6738 34.5739 23.695C34.6314 23.8746 34.6937 24.0492 34.7608 24.2187C35.2304 25.405 35.8482 26.3071 36.6144 26.9249C37.3805 27.518 38.196 27.8146 39.061 27.8146C40.0002 27.8146 40.9269 27.4686 41.8413 26.7766C42.7805 26.0599 43.6207 24.9602 44.3622 23.4773C44.3374 23.6009 44.3251 23.7245 44.3251 23.848V24.2187C44.3251 25.5039 44.6464 26.4306 45.2889 26.9991C45.9315 27.5675 46.6853 27.8517 47.5502 27.8517C48.3658 27.8517 49.1814 27.654 49.9969 27.2585C50.8125 26.8384 51.4921 26.2823 52.0358 25.5904C52.5795 24.8984 52.8514 24.1322 52.8514 23.292L52.5548 23.1437C52.2088 23.7368 51.8257 24.0334 51.4056 24.0334C51.1585 24.0334 50.9484 23.8851 50.7754 23.5885C50.6024 23.2673 50.5159 22.6988 50.5159 21.8833C50.5159 21.1419 50.59 20.2892 50.7383 19.3254C50.8866 18.3368 51.0843 17.3359 51.3315 16.3227C51.5786 15.2847 51.8505 14.2961 52.147 13.357C52.4436 12.4179 52.7402 11.6147 53.0367 10.9474L52.9626 10.725C52.7402 10.0824 52.32 9.62521 51.7022 9.35335C51.0843 9.0815 50.4294 8.94558 49.7374 8.94558C48.9466 8.94558 48.2175 9.10622 47.5502 9.4275C46.9077 9.74878 46.574 10.2431 46.5493 10.9103C46.5493 11.0339 46.5246 11.2687 46.4752 11.6147C46.4505 11.9607 46.401 12.3437 46.3269 12.7639C46.0303 11.454 45.4866 10.5025 44.6958 9.90941C43.9049 9.29157 43.0153 8.98265 42.0267 8.98265C41.137 8.98265 40.2226 9.22978 39.2835 9.72406C38.3443 10.1936 37.4793 10.898 36.6885 11.8371C36.4781 12.087 36.2782 12.3517 36.0888 12.6313C35.9455 12.8428 35.9285 13.1135 36.0319 13.3471L36.627 14.6912C36.6355 14.7103 36.6508 14.7256 36.6699 14.7341L40.1016 16.2535C40.2044 16.299 40.3238 16.2442 40.3585 16.1373C40.7045 15.1488 41.137 14.3332 41.656 13.6906C42.1997 13.0234 42.7805 12.6897 43.3983 12.6897C43.8185 12.6897 44.2386 12.8874 44.6587 13.2829C45.1036 13.6536 45.5237 14.2961 45.9191 15.2105C45.8944 15.4082 45.8573 15.6183 45.8079 15.8407C45.7585 16.0385 45.7091 16.2485 45.6596 16.4709C45.0912 18.621 44.4116 20.2769 43.6207 21.4384C42.8546 22.5753 42.1503 23.1437 41.5077 23.1437C41.0381 23.1437 40.6427 22.8101 40.3214 22.1428C40.0249 21.4755 39.8766 20.4622 39.8766 19.103C39.8766 19.046 39.8771 18.9891 39.8782 18.9322C39.8898 18.3142 39.2588 17.8277 38.6936 18.0779L36.6699 18.9739C36.6508 18.9824 36.6355 18.9977 36.627 19.0168L34.5841 23.6308Z" fill="#0077FF"/>
<path d="M57.3925 27.3698C58.4058 27.7899 59.6786 28 61.2108 28C62.9902 28 64.6337 27.7158 66.1412 27.1473C67.6488 26.5542 68.8474 25.7881 69.7371 24.8489C70.6515 23.8851 71.1087 22.8471 71.1087 21.735C71.1087 20.9194 70.874 20.2275 70.4044 19.659C69.9348 19.0906 69.3293 18.584 68.5879 18.1391C67.8465 17.6943 67.0557 17.2741 66.2154 16.8787C65.5975 16.5822 64.9921 16.2732 64.3989 15.952C63.8305 15.606 63.3486 15.2229 62.9532 14.8028C62.5824 14.3579 62.3971 13.8389 62.3971 13.2458C62.3971 12.7268 62.5454 12.3314 62.8419 12.0595C63.1385 11.7877 63.5092 11.6517 63.9541 11.6517C64.5719 11.6517 65.1527 11.9483 65.6964 12.5414C66.2401 13.1099 66.4996 14.0243 66.4749 15.2847C68.0071 15.2847 69.144 14.9881 69.8854 14.395C70.6268 13.8018 70.9975 13.1346 70.9975 12.3932C70.9975 11.5282 70.5156 10.7126 69.5518 9.94649C68.5879 9.18036 67.1545 8.79729 65.2515 8.79729C64.2383 8.79729 63.2003 8.93322 62.1376 9.20507C61.0749 9.45221 60.0863 9.83527 59.1719 10.3543C58.2575 10.8485 57.5161 11.4664 56.9477 12.2078C56.404 12.9492 56.1321 13.8018 56.1321 14.7657C56.1321 15.6801 56.3669 16.4709 56.8365 17.1382C57.306 17.7808 57.8745 18.3368 58.5417 18.8064C59.209 19.2513 59.8269 19.6467 60.3953 19.9927C61.5321 20.6352 62.4589 21.216 63.1756 21.735C63.8923 22.254 64.2506 22.8595 64.2506 23.5515C64.2506 24.0457 64.0529 24.4659 63.6575 24.8119C63.2868 25.1332 62.8172 25.2938 62.2488 25.2938C61.7792 25.2938 61.285 25.1332 60.766 24.8119C60.2717 24.4906 59.8639 23.9592 59.5426 23.2178C59.2214 22.4517 59.0607 21.4384 59.0607 20.178C57.6273 20.178 56.4905 20.5487 55.6502 21.2901C54.8099 22.0069 54.3898 22.8348 54.3898 23.7739C54.3898 24.4412 54.6369 25.1084 55.1312 25.7757C55.6255 26.4183 56.3793 26.9496 57.3925 27.3698Z" fill="#0077FF"/>
<path d="M76.9703 27.8146C75.9076 27.8146 75.0549 27.4563 74.4124 26.7396C73.7698 26.0229 73.4485 25.0467 73.4485 23.811C73.4485 23.1437 73.535 22.2787 73.708 21.216C73.881 20.1286 74.0911 18.9423 74.3382 17.6572C74.6101 16.3474 74.8696 15.0252 75.1167 13.6906C75.3639 12.3314 75.5739 11.0215 75.7469 9.76113C75.9199 8.50072 76.0064 7.3886 76.0064 6.42476C76.0064 5.21378 75.8458 4.33644 75.5245 3.79273V3.57031C76.0682 2.95246 76.6613 2.49526 77.3039 2.19869C77.9465 1.90212 78.5767 1.75384 79.1945 1.75384C80.1336 1.75384 80.9368 2.08748 81.6041 2.75475C82.2714 3.42203 82.605 4.42294 82.605 5.75749C82.605 6.47419 82.5062 7.35153 82.3085 8.38951C82.1107 9.4275 81.876 10.5149 81.6041 11.6517C81.3323 12.7886 81.0604 13.8513 80.7886 14.8398C81.2581 13.9254 81.876 13.0234 82.6421 12.1337C83.4329 11.2192 84.3226 10.4655 85.3112 9.87234C86.3245 9.27921 87.3748 8.98265 88.4622 8.98265C89.6979 8.98265 90.5258 9.36571 90.946 10.1318C91.3908 10.898 91.6132 11.8495 91.6132 12.9863C91.6132 14.0243 91.502 15.1364 91.2796 16.3227C91.0572 17.4842 90.8347 18.6087 90.6123 19.6961C90.3899 20.7588 90.2787 21.6485 90.2787 22.3652C90.2787 23.4032 90.5876 23.9222 91.2054 23.9222C91.4773 23.9222 91.7121 23.848 91.9098 23.6997C92.1322 23.5268 92.2929 23.3414 92.3917 23.1437L92.6512 23.329C92.6512 24.2929 92.4164 25.1084 91.9469 25.7757C91.4773 26.443 90.8718 26.9496 90.1304 27.2956C89.4137 27.6416 88.6723 27.8146 87.9061 27.8146C86.8929 27.8146 85.9785 27.481 85.1629 26.8137C84.3473 26.1217 83.9396 25.0096 83.9396 23.4773C83.9396 22.6123 84.0508 21.6732 84.2732 20.6599C84.5204 19.6467 84.7551 18.6705 84.9776 17.7314C85.2 16.7675 85.3112 15.9643 85.3112 15.3217C85.3112 14.4815 85.0146 14.0613 84.4215 14.0613C83.8778 14.0613 83.2846 14.3332 82.6421 14.8769C81.9995 15.4206 81.4311 16.1002 80.9368 16.9158C80.4673 17.7314 80.1584 18.5346 80.0101 19.3254C79.9606 19.5231 79.9359 19.7579 79.9359 20.0297C79.9359 20.6476 80.0224 21.2407 80.1954 21.8091C80.3931 22.3776 80.492 23.0448 80.492 23.811C80.492 24.9478 80.1954 25.8993 79.6023 26.6654C79.0092 27.4315 78.1318 27.8146 76.9703 27.8146Z" fill="#0077FF"/>
<path fill-rule="evenodd" clip-rule="evenodd" d="M136.354 27.8517C135.489 27.8517 134.735 27.5675 134.092 26.9991C133.45 26.4306 133.128 25.5039 133.128 24.2187V23.848C133.128 23.7245 133.141 23.6009 133.166 23.4773C132.424 24.9602 131.584 26.0599 130.645 26.7766C129.73 27.4686 128.804 27.8146 127.864 27.8146C126.999 27.8146 126.184 27.518 125.418 26.9249C124.652 26.3071 124.034 25.405 123.564 24.2187C123.095 23.0325 122.86 21.5991 122.86 19.9185C122.86 18.1886 123.095 16.6439 123.564 15.2847C124.058 13.9254 124.701 12.7762 125.492 11.8371C126.283 10.898 127.148 10.1936 128.087 9.72406C129.026 9.22978 129.94 8.98265 130.83 8.98265C131.819 8.98265 132.708 9.29157 133.499 9.90941C134.29 10.5025 134.834 11.454 135.13 12.7639C135.204 12.3437 135.254 11.9607 135.279 11.6147C135.328 11.2687 135.353 11.0339 135.353 10.9103C135.377 10.2431 135.711 9.74878 136.354 9.4275C137.021 9.10622 137.75 8.94558 138.541 8.94558C139.233 8.94558 139.888 9.0815 140.506 9.35335C141.123 9.62521 141.544 10.0824 141.766 10.725L141.84 10.9474C141.544 11.6147 141.247 12.4179 140.95 13.357C140.654 14.2961 140.382 15.2847 140.135 16.3227C139.888 17.3359 139.69 18.3368 139.542 19.3254C139.393 20.2892 139.319 21.1419 139.319 21.8833C139.319 22.6988 139.406 23.2673 139.579 23.5885C139.752 23.8851 139.962 24.0334 140.209 24.0334C140.629 24.0334 141.012 23.7368 141.358 23.1437L141.655 23.292C141.655 24.1322 141.383 24.8984 140.839 25.5904C140.295 26.2823 139.616 26.8384 138.8 27.2585C137.985 27.654 137.169 27.8517 136.354 27.8517ZM130.311 23.1437C130.954 23.1437 131.658 22.5753 132.424 21.4384C133.215 20.2769 133.895 18.621 134.463 16.4709C134.512 16.2485 134.562 16.0385 134.611 15.8407C134.661 15.6183 134.698 15.4082 134.722 15.2105C134.327 14.2961 133.907 13.6536 133.462 13.2829C133.042 12.8874 132.622 12.6897 132.202 12.6897C131.584 12.6897 131.003 13.0234 130.459 13.6906C129.94 14.3332 129.508 15.1488 129.162 16.1373C128.841 17.1259 128.68 18.1144 128.68 19.103C128.68 20.4622 128.828 21.4755 129.125 22.1428C129.446 22.8101 129.842 23.1437 130.311 23.1437Z" fill="#0077FF"/>
<path d="M145.749 26.7396C146.441 27.4563 147.232 27.8146 148.122 27.8146C148.764 27.8146 149.358 27.6416 149.901 27.2956C150.445 26.9249 150.89 26.4306 151.236 25.8128C151.582 25.1949 151.755 24.5153 151.755 23.7739C151.755 23.156 151.668 22.4023 151.495 21.5126C151.322 20.6229 151.236 19.795 151.236 19.0288C151.236 17.7684 151.52 16.8046 152.088 16.1373C152.682 15.47 153.312 15.1364 153.979 15.1364C154.473 15.1364 154.918 15.3217 155.314 15.6925C155.709 16.0632 155.919 16.5698 155.944 17.2124L156.092 17.2865C156.957 17.3112 157.686 17.0641 158.279 16.5451C158.897 16.0014 159.354 15.3217 159.651 14.5062C159.972 13.6906 160.133 12.8874 160.133 12.0966C160.133 11.2316 159.947 10.4902 159.577 9.87234C159.206 9.2545 158.625 8.94558 157.834 8.94558C156.994 8.94558 156.08 9.37807 155.091 10.2431C154.127 11.0833 153.201 12.3067 152.311 13.9131C152.336 13.7401 152.348 13.5671 152.348 13.3941C152.373 13.1964 152.385 13.011 152.385 12.838C152.385 11.7753 152.088 10.8733 151.495 10.1318C150.902 9.36571 149.951 8.98265 148.641 8.98265C147.751 8.98265 146.973 9.15564 146.305 9.50164C145.663 9.84763 145.131 10.2801 144.711 10.7991C144.291 11.2934 143.982 11.8124 143.785 12.3561C143.587 12.8998 143.5 13.3694 143.525 13.7648L143.748 13.9131C144.242 13.2705 144.724 12.9492 145.193 12.9492C145.49 12.9492 145.725 13.1099 145.898 13.4311C146.095 13.7277 146.194 14.1355 146.194 14.6545C146.194 15.1488 146.12 15.779 145.972 16.5451C145.823 17.2865 145.65 18.0897 145.453 18.9547C145.255 19.795 145.082 20.6229 144.934 21.4384C144.785 22.254 144.711 22.983 144.711 23.6256C144.711 24.9602 145.057 25.9981 145.749 26.7396Z" fill="#0077FF"/>
</svg>
